# xmcd
#
# Track frame offsets:
# 150
# 14608
# 29867
# 46904
# 62185
# 82146
# 96302
# 116867
# 128721
# 145893
# 160287
# 172705
# 190476
# 201782
# 219741
# 234960
#
# Disc length: 3350 seconds
#
#
# Revision: 0
# Processed by: cddbd v1.5.2PL0 Copyright (c) Steve Scherf et al.
# Submitted via: FreeRIP 2.945 
#
DISCID=ee0d1410
DTITLE=Rune Rudberg - Rett Fra Sofaen
DYEAR=2007
DGENRE=Country/Danseband
TTITLE0=Nå Har Alle Folk Fått Se'n
TTITLE1=Ut Mot Havet 2007 (Duett Med Plumbo)
TTITLE2=Velkommen Til Hotel Cæsar
TTITLE3=When You Smile
TTITLE4=Kjærlighet Gjør Blind
TTITLE5=Peder Med Mopeden
TTITLE6=Den Fineste Jeg Vet
TTITLE7=Velkommen Til Hotel Cæsar Part II
TTITLE8=På Bedre Tanker
TTITLE9=Alle Mann Til Pumpene
TTITLE10=1001-1002-1003
TTITLE11=Runaway
TTITLE12=Sånn Kan Det Gå (Playstation 2)
TTITLE13=De Ord Som Mor Mi Sa
TTITLE14=Du Veit At Det Er Sant
TTITLE15=Give Me A Sign
EXTD=
EXTT0=
EXTT1=
EXTT2=
EXTT3=
EXTT4=
EXTT5=
EXTT6=
EXTT7=
EXTT8=
EXTT9=
EXTT10=
EXTT11=
EXTT12=
EXTT13=
EXTT14=
EXTT15=
PLAYORDER=
